<?xml version="1.0" encoding="iso-8859-1"?>
<!-- Uploaded to: SVG Repo, www.svgrepo.com, Generator: SVG Repo Mixer Tools -->
<svg fill="white" height="20px" width="20px" version="1.1" id="Layer_1" xmlns="http://www.w3.org/2000/svg" xmlns:xlink="http://www.w3.org/1999/xlink" 
	 viewBox="0 0 512.003 512.003" xml:space="preserve">
<g>
	<g>
		<g>
			<path d="M131.076,375.467h13.995c4.71,0,8.533-3.823,8.533-8.533s-3.823-8.533-8.533-8.533h-17.067v-42.667H42.671v42.667H25.604
				c-4.719,0-8.533,3.823-8.533,8.533s3.814,8.533,8.533,8.533h13.986L0.388,500.924c-1.399,4.497,1.101,9.284,5.598,10.692
				C6.831,511.872,7.693,512,8.538,512c3.635,0,6.997-2.338,8.141-5.99l28.484-91.136c5.769,16.734,21.504,28.86,40.175,28.86
				c18.662,0,34.398-12.126,40.175-28.86l28.476,91.136c1.143,3.652,4.506,5.99,8.141,5.99c0.845,0,1.707-0.128,2.551-0.384
				c4.497-1.408,7.006-6.195,5.598-10.692L131.076,375.467z"/>
			<path d="M230.401,93.867v-8.533h42.667v68.267c0,4.71,3.823,8.533,8.533,8.533h42.667v33.562
				c-37.069,14.251-65.306,46.43-73.967,85.905h14.234c2.014,0,3.968,0.708,5.513,2.014c26.53,22.426,68.753,18.039,91.537-0.137
				c0.179-0.137,0.358-0.273,0.538-0.393c27.375-21.453,76.45-27.733,110.234-1.468h11.221
				c-8.661-39.484-36.907-71.672-73.975-85.922V102.4h8.533c4.71,0,8.533-3.823,8.533-8.533V59.734c0-4.71-3.823-8.533-8.533-8.533
				h-4.463l12.39-30.959c1.05-2.637,0.725-5.615-0.862-7.962c-1.587-2.338-4.233-3.746-7.066-3.746h-102.4
				c-2.833,0-5.478,1.408-7.066,3.746c-1.587,2.347-1.911,5.325-0.862,7.962l12.39,30.959h-4.463c-4.71,0-8.533,3.823-8.533,8.533
				v34.133c0,4.71,3.823,8.533,8.533,8.533h8.533v42.667h-34.133V76.8c0-4.71-3.823-8.533-8.533-8.533h-51.2v-8.533
				c0-4.71-3.823-8.533-8.533-8.533h-25.6V34.134h17.067c4.71,0,8.533-3.823,8.533-8.533c0-4.71-3.823-8.533-8.533-8.533h-17.067
				V8.534c0-4.71-3.823-8.533-8.533-8.533s-8.533,3.823-8.533,8.533v8.533h-17.067c-4.71,0-8.533,3.823-8.533,8.533
				c0,4.71,3.823,8.533,8.533,8.533h17.067V51.2h-25.6c-4.71,0-8.533,3.823-8.533,8.533v8.533H85.334
				c-4.71,0-8.533,3.823-8.533,8.533v68.267H34.134c-4.71,0-8.533,3.823-8.533,8.533v34.133c0,4.71,3.823,8.533,8.533,8.533h8.533
				v102.4h85.333v-102.4h8.533c4.71,0,8.533-3.823,8.533-8.533v-34.133c0-4.71-3.823-8.533-8.533-8.533H93.868V85.334h51.2v8.533
				c0,4.71,3.823,8.533,8.533,8.533h68.267C226.578,102.4,230.401,98.578,230.401,93.867z M392.534,190.533
				c-0.461-0.102-0.93-0.137-1.399-0.23c-3.038-0.631-6.127-1.135-9.25-1.527c-0.981-0.119-1.954-0.29-2.935-0.384
				c-3.951-0.401-7.953-0.657-12.015-0.657s-8.055,0.256-12.015,0.657c-0.99,0.102-1.963,0.265-2.944,0.384
				c-3.115,0.393-6.195,0.896-9.242,1.527c-0.461,0.094-0.939,0.128-1.399,0.23V102.4h51.2V190.533z M405.531,25.601l-10.24,25.6
				h-56.713l-10.24-25.6H405.531z M128.001,162.134V179.2h-8.533H51.201h-8.533v-17.067H128.001z"/>
			<path d="M511.797,501.617l-31.829-143.215h6.434c4.71,0,8.533-3.823,8.533-8.533c0-4.71-3.823-8.533-8.533-8.533h-5.035
				c3.234-10.829,5.035-22.272,5.035-34.133c0-2.876-0.23-5.692-0.435-8.516h-16.631c-2.014,0-3.968-0.717-5.513-2.022
				c-26.53-22.417-68.753-18.031-91.537,0.145c-0.179,0.137-0.358,0.265-0.538,0.393c-14.78,11.58-35.891,18.739-57.498,18.748
				c-18.415,0-37.188-5.197-52.736-17.28h-13.611c-0.205,2.825-0.435,5.649-0.435,8.533c0,11.861,1.792,23.305,5.035,34.133h-5.035
				c-4.71,0-8.533,3.823-8.533,8.533c0,4.71,3.823,8.533,8.533,8.533h6.426l-31.821,143.215c-1.024,4.599,1.877,9.156,6.477,10.18
				c0.623,0.137,1.246,0.205,1.86,0.205c3.908,0,7.432-2.705,8.32-6.682l29.184-131.345c21.495,31.77,57.856,52.693,99.021,52.693
				c41.156,0,77.525-20.924,99.021-52.693l29.184,131.345c0.879,3.977,4.403,6.682,8.32,6.682c0.614,0,1.237-0.068,1.86-0.205
				C509.92,510.773,512.821,506.217,511.797,501.617z"/>
		</g>
	</g>
</g>
</svg>